<?xml version="1.0" standalone="no"?>
<!DOCTYPE svg PUBLIC "-//W3C//DTD SVG 20010904//EN"
 "http://www.w3.org/TR/2001/REC-SVG-20010904/DTD/svg10.dtd">
<svg version="1.0" xmlns="http://www.w3.org/2000/svg"
 width="500.000000pt" height="500.000000pt" viewBox="0 0 500.000000 500.000000"
 preserveAspectRatio="xMidYMid meet">
<metadata>
Created by potrace 1.16, written by Peter Selinger 2001-2019
</metadata>
<g transform="translate(0.000000,500.000000) scale(0.100000,-0.100000)"
fill="#000000" stroke="none">
<path d="M0 2500 l0 -2500 2500 0 2500 0 0 2500 0 2500 -2500 0 -2500 0 0
-2500z m2709 1505 c51 -9 148 -33 215 -55 228 -74 407 -184 587 -358 231 -224
372 -478 441 -796 32 -147 32 -455 0 -602 -60 -276 -186 -526 -369 -729 l-52
-58 -14 35 c-37 89 -47 173 -47 407 0 264 0 264 84 276 99 15 36 25 -159 25
-194 0 -258 -10 -162 -24 89 -14 97 -36 97 -276 l0 -188 -41 -35 c-58 -50
-162 -102 -254 -128 -69 -18 -97 -21 -210 -17 -115 4 -139 9 -207 35 -130 51
-266 164 -327 273 l-22 40 34 0 c57 0 184 37 260 77 102 53 221 173 270 274
20 41 46 111 57 155 33 127 40 374 10 299 -5 -11 -9 -43 -9 -72 -1 -65 -23
-172 -52 -249 -63 -170 -213 -319 -387 -384 -69 -26 -199 -47 -212 -34 -41 41
-63 325 -36 460 33 159 125 307 253 403 239 180 615 167 807 -26 40 -41 100
-143 120 -205 3 -10 10 -18 16 -18 6 0 9 8 6 18 -2 9 -13 77 -22 149 l-18 133
-75 39 c-146 75 -263 100 -457 101 l-112 0 -11 74 c-6 41 -14 100 -17 131 -6
51 -11 59 -44 81 -55 36 -211 89 -324 109 -116 21 -313 16 -411 -9 -82 -22
-249 -106 -310 -157 -114 -95 -201 -224 -245 -364 -28 -88 -38 -267 -21 -357
64 -334 316 -565 679 -624 53 -8 97 -16 98 -17 159 -259 420 -406 720 -407
172 0 334 42 452 117 29 18 54 33 56 33 2 0 7 -18 11 -39 3 -22 24 -74 46
-117 21 -43 35 -81 31 -84 -202 -173 -494 -303 -760 -341 -113 -16 -443 -6
-542 16 -453 100 -843 403 -1049 812 -78 156 -129 322 -152 498 -16 127 -7
374 20 499 93 436 354 795 746 1024 133 78 333 150 490 176 113 19 407 20 524
1z m-381 -736 c171 -43 306 -155 361 -301 10 -26 9 -27 -47 -38 -311 -64 -548
-303 -602 -606 -21 -119 -4 -314 36 -418 7 -17 4 -18 -30 -12 -233 44 -421
200 -507 421 -40 102 -52 190 -46 324 8 196 69 340 197 471 164 167 388 223
638 159z"/>
<path d="M2290 3753 c0 -21 4 -44 9 -51 12 -20 61 -4 73 24 15 31 -13 64 -54
64 -26 0 -28 -3 -28 -37z m65 -13 c0 -18 -6 -26 -22 -28 -20 -3 -23 1 -23 28
0 27 3 31 23 28 16 -2 22 -10 22 -28z"/>
<path d="M2152 3741 c5 -37 2 -38 -29 -9 -13 12 -25 19 -28 16 -9 -9 7 -88 18
-88 5 0 7 13 3 31 l-6 31 31 -27 c17 -14 34 -24 36 -21 3 3 2 23 -2 45 -8 49
-30 70 -23 22z"/>
<path d="M2642 3758 c-16 -16 -16 -68 1 -72 57 -18 67 -17 67 9 0 16 -6 25
-16 25 -8 0 -13 -4 -9 -9 9 -16 -15 -24 -30 -11 -19 16 -19 25 1 44 12 13 20
14 36 5 16 -9 19 -8 16 3 -6 17 -50 22 -66 6z"/>
<path d="M2827 3685 c-9 -25 -12 -45 -7 -45 5 0 12 9 15 20 9 29 22 25 29 -10
7 -39 21 -38 35 1 15 44 12 70 -4 34 l-13 -30 -11 28 c-6 16 -11 33 -11 38 0
25 -20 4 -33 -36z"/>
<path d="M1927 3694 c-4 -4 -7 -30 -7 -57 l0 -50 25 27 c21 23 28 26 40 16 8
-7 15 -8 15 -3 0 14 -66 74 -73 67z m33 -45 c0 -5 -4 -9 -10 -9 -5 0 -10 7
-10 16 0 8 5 12 10 9 6 -3 10 -10 10 -16z"/>
<path d="M3017 3615 c-20 -43 -22 -67 -2 -42 9 13 21 17 37 12 21 -6 22 -5 6
8 -26 21 -22 35 10 30 l27 -4 -25 15 c-34 21 -34 21 -53 -19z"/>
<path d="M1642 3538 c-7 -7 -12 -17 -12 -22 1 -18 49 -71 56 -63 4 4 2 13 -4
19 -9 9 -8 16 5 30 17 19 5 26 -14 7 -8 -8 -13 -8 -18 1 -4 6 1 18 11 25 16
12 16 14 4 15 -9 0 -21 -5 -28 -12z"/>
<path d="M3267 3442 c-10 -10 -17 -23 -17 -29 0 -14 34 -43 49 -43 7 0 3 8 -9
18 -23 19 -20 46 8 57 10 4 23 -2 34 -17 13 -17 18 -19 18 -7 0 39 -55 53 -83
21z"/>
<path d="M1517 3433 c-4 -3 2 -17 14 -29 l21 -22 -43 5 -42 6 28 -36 c15 -21
31 -37 36 -37 14 0 11 11 -8 33 -18 19 -17 20 19 13 20 -4 39 -3 42 2 7 11
-58 75 -67 65z"/>
<path d="M3404 3304 c-24 -23 -25 -27 -11 -47 29 -45 91 -22 85 31 -5 39 -43
48 -74 16z m56 -9 c15 -18 -2 -45 -30 -45 -26 0 -35 32 -14 47 23 17 29 16 44
-2z"/>
<path d="M1371 3271 c-25 -25 -26 -30 -5 -59 27 -39 84 -20 84 27 0 19 -18 12
-23 -10 -7 -25 -35 -23 -51 4 -9 15 -7 21 8 32 11 8 17 17 14 21 -4 3 -16 -4
-27 -15z"/>
<path d="M3533 3148 c-36 -22 -46 -46 -12 -28 26 15 34 7 20 -18 -6 -12 -11
-28 -11 -36 0 -14 6 -12 37 7 20 13 39 30 41 37 4 11 -1 10 -21 -3 -36 -24
-40 -22 -22 13 28 54 20 61 -32 28z"/>
<path d="M3627 2959 c-21 -17 -35 -35 -32 -40 4 -5 29 -9 56 -9 31 0 48 4 44
10 -3 6 -23 10 -43 10 l-37 0 30 24 c17 13 27 27 24 30 -3 3 -22 -8 -42 -25z"/>
<path d="M3674 2789 c-26 -7 -31 -13 -26 -34 2 -14 9 -28 15 -32 6 -4 8 3 3
21 -5 19 -3 26 9 26 8 0 15 -6 15 -14 0 -8 5 -18 11 -22 9 -5 10 1 5 20 -5 19
-3 26 9 26 8 0 15 -9 15 -20 0 -11 5 -20 11 -20 6 0 8 7 5 16 -3 9 -6 22 -6
30 0 16 -20 17 -66 3z"/>
<path d="M3693 2614 c-22 -9 -14 -22 10 -17 l22 6 -24 -26 c-14 -15 -21 -30
-18 -34 4 -3 13 2 21 12 11 16 17 17 29 7 12 -10 18 -10 31 4 27 26 16 49 -24
51 -19 1 -41 0 -47 -3z m67 -23 c0 -17 -18 -21 -24 -6 -3 9 0 15 9 15 8 0 15
-4 15 -9z"/>
<path d="M3770 2425 c0 -11 -11 -15 -40 -15 -22 0 -40 -4 -40 -10 0 -5 18 -10
39 -10 30 0 41 -4 43 -17 3 -10 6 1 9 25 2 23 1 42 -3 42 -5 0 -8 -7 -8 -15z"/>
<path d="M3671 2228 c0 -31 1 -32 11 -10 15 30 28 28 29 -5 0 -27 1 -27 9 -5
12 27 34 30 27 2 -3 -11 -2 -20 3 -20 8 0 24 50 18 55 -2 1 -24 6 -50 9 l-48
7 1 -33z"/>
<path d="M3640 2080 c0 -5 8 -10 18 -10 12 -1 9 -5 -10 -16 -16 -8 -28 -19
-28 -25 0 -6 7 -6 20 1 16 9 22 8 26 -5 10 -25 43 -18 55 11 11 31 13 28 -30
43 -42 14 -51 14 -51 1z m62 -35 c0 -5 -5 -11 -11 -13 -6 -2 -11 4 -11 13 0 9
5 15 11 13 6 -2 11 -8 11 -13z"/>
</g>
</svg>
